<?xml version="1.0" standalone="no"?>
<!DOCTYPE svg PUBLIC "-//W3C//DTD SVG 20010904//EN"
 "http://www.w3.org/TR/2001/REC-SVG-20010904/DTD/svg10.dtd">
<svg version="1.0" xmlns="http://www.w3.org/2000/svg"
 width="48.000000pt" height="48.000000pt" viewBox="0 0 48.000000 48.000000"
 preserveAspectRatio="xMidYMid meet">

<g transform="translate(0.000000,48.000000) scale(0.100000,-0.100000)"
fill="#000000" stroke="none">
<path d="M160 467 c-19 -6 -58 -34 -85 -62 -74 -74 -91 -147 -59 -250 16 -48
16 -56 0 -100 -9 -27 -14 -50 -13 -52 2 -1 25 4 52 13 44 16 52 16 100 0 103
-32 176 -15 250 59 100 99 100 237 2 333 -67 65 -158 87 -247 59z m168 -23
c176 -73 176 -335 0 -408 -48 -20 -127 -20 -177 0 -33 13 -46 14 -76 4 -20 -7
-39 -10 -42 -7 -3 3 0 22 7 42 10 30 9 43 -4 76 -32 80 -15 182 42 243 58 62
169 84 250 50z"/>
<path d="M172 429 c-48 -14 -109 -80 -123 -131 -23 -89 12 -182 88 -229 30
-19 52 -24 105 -24 58 0 72 4 109 30 116 82 117 247 3 328 -45 32 -126 43
-182 26z m165 -36 c55 -35 83 -87 83 -153 0 -57 -10 -81 -49 -123 -38 -42 -73
-57 -131 -57 -58 0 -93 15 -131 57 -39 42 -49 66 -49 123 0 58 15 93 57 131
43 40 63 48 123 49 44 0 65 -6 97 -27z"/>
<path d="M200 383 c0 -7 5 -15 10 -18 6 -4 8 -11 5 -16 -4 -5 -1 -9 4 -9 15 0
13 11 -4 34 -8 11 -15 15 -15 9z"/>
<path d="M191 273 c0 -10 3 -13 5 -6 8 19 62 -17 57 -38 -5 -18 -39 -15 -46 5
-2 6 -3 2 -1 -8 2 -11 -2 -27 -9 -35 -9 -12 -6 -12 15 2 16 10 29 13 33 7 10
-17 28 -11 21 7 -4 9 -1 20 5 24 8 4 -3 16 -29 33 -49 31 -52 31 -51 9z"/>
<path d="M289 277 c6 -8 7 -18 3 -22 -4 -5 -1 -5 6 -1 10 6 10 11 1 22 -6 8
-14 14 -16 14 -3 0 0 -6 6 -13z"/>
<path d="M326 262 c-2 -4 4 -13 15 -20 22 -14 25 -7 5 14 -8 8 -17 11 -20 6z"/>
<path d="M375 241 c-3 -5 -1 -12 5 -16 5 -3 10 1 10 9 0 18 -6 21 -15 7z"/>
<path d="M144 218 c-4 -7 -4 -10 1 -6 4 4 15 2 24 -5 14 -11 14 -10 2 6 -16
20 -18 21 -27 5z"/>
</g>
</svg>
